<svg width="31" height="31" viewBox="0 0 31 31" fill="none" xmlns="http://www.w3.org/2000/svg">
<circle cx="15.5" cy="15.5" r="15" stroke="white"/>
<path d="M15.498 11.6518C13.3685 11.6518 11.6498 13.3704 11.6498 15.5C11.6498 17.6296 13.3685 19.3482 15.498 19.3482C17.6275 19.3482 19.3461 17.6296 19.3461 15.5C19.3461 13.3704 17.6275 11.6518 15.498 11.6518ZM15.498 18.0011C14.1208 18.0011 12.997 16.8772 12.997 15.5C12.997 14.1228 14.1208 12.9989 15.498 12.9989C16.8751 12.9989 17.999 14.1228 17.999 15.5C17.999 16.8772 16.8751 18.0011 15.498 18.0011ZM19.5037 10.5973C19.0065 10.5973 18.605 10.9988 18.605 11.496C18.605 11.9933 19.0065 12.3948 19.5037 12.3948C20.0009 12.3948 20.4025 11.9951 20.4025 11.496C20.4026 11.378 20.3795 11.261 20.3343 11.1519C20.2892 11.0428 20.223 10.9437 20.1396 10.8602C20.0561 10.7767 19.9569 10.7105 19.8478 10.6654C19.7387 10.6203 19.6218 10.5972 19.5037 10.5973ZM22.9992 15.5C22.9992 14.4643 23.0085 13.438 22.9504 12.4042C22.8922 11.2033 22.6183 10.1376 21.7402 9.25953C20.8603 8.37956 19.7964 8.10751 18.5956 8.04934C17.56 7.99118 16.5337 8.00056 15.4999 8.00056C14.4642 8.00056 13.4379 7.99118 12.4041 8.04934C11.2033 8.10751 10.1376 8.38144 9.25951 9.25953C8.37956 10.1395 8.1075 11.2033 8.04934 12.4042C7.99118 13.4399 8.00056 14.4662 8.00056 15.5C8.00056 16.5338 7.99118 17.562 8.04934 18.5958C8.1075 19.7967 8.38143 20.8624 9.25951 21.7405C10.1395 22.6204 11.2033 22.8925 12.4041 22.9507C13.4398 23.0088 14.4661 22.9994 15.4999 22.9994C16.5355 22.9994 17.5618 23.0088 18.5956 22.9507C19.7964 22.8925 20.8621 22.6186 21.7402 21.7405C22.6202 20.8605 22.8922 19.7967 22.9504 18.5958C23.0104 17.562 22.9992 16.5357 22.9992 15.5ZM21.3481 19.9242C21.2111 20.2657 21.046 20.5209 20.7815 20.7836C20.5169 21.0481 20.2636 21.2132 19.9221 21.3502C18.9352 21.7423 16.5918 21.6542 15.498 21.6542C14.4041 21.6542 12.0588 21.7423 11.072 21.3521C10.7305 21.2151 10.4753 21.05 10.2126 20.7854C9.94809 20.5209 9.78298 20.2676 9.64601 19.9261C9.25576 18.9373 9.34394 16.5939 9.34394 15.5C9.34394 14.4061 9.25576 12.0608 9.64601 11.0739C9.78298 10.7324 9.94809 10.4772 10.2126 10.2146C10.4772 9.95188 10.7305 9.78489 11.072 9.64792C12.0588 9.25766 14.4041 9.34584 15.498 9.34584C16.5918 9.34584 18.9371 9.25766 19.924 9.64792C20.2655 9.78489 20.5207 9.95 20.7833 10.2146C21.0479 10.4791 21.213 10.7324 21.35 11.0739C21.7402 12.0608 21.652 14.4061 21.652 15.5C21.652 16.5939 21.7402 18.9373 21.3481 19.9242Z" fill="white"/>
</svg>
