<svg width="31" height="31" viewBox="0 0 31 31" fill="none" xmlns="http://www.w3.org/2000/svg">
<circle cx="15.5" cy="15.5" r="15" stroke="white"/>
<path d="M23 11.4464C22.4484 11.6909 21.8558 11.856 21.2328 11.9307C21.8756 11.5461 22.3565 10.9407 22.5858 10.2276C21.9819 10.5863 21.3209 10.8388 20.6317 10.9741C20.1682 10.4792 19.5543 10.1512 18.8852 10.041C18.2162 9.93073 17.5295 10.0445 16.9317 10.3645C16.334 10.6846 15.8586 11.193 15.5794 11.8109C15.3002 12.4288 15.2328 13.1216 15.3877 13.7817C14.164 13.7203 12.9669 13.4022 11.8741 12.8482C10.7813 12.2942 9.81726 11.5166 9.04444 10.5658C8.78019 11.0217 8.62825 11.5502 8.62825 12.113C8.62795 12.6197 8.75273 13.1186 8.99151 13.5655C9.23029 14.0124 9.57568 14.3935 9.99705 14.6749C9.50837 14.6593 9.03048 14.5273 8.60314 14.2897V14.3294C8.6031 15.04 8.84892 15.7288 9.2989 16.2789C9.74888 16.8289 10.3753 17.2063 11.0719 17.3471C10.6185 17.4698 10.1433 17.4878 9.68193 17.3999C9.87847 18.0114 10.2613 18.5461 10.7768 18.9292C11.2923 19.3123 11.9148 19.5246 12.5569 19.5364C11.4668 20.3921 10.1205 20.8563 8.73461 20.8543C8.48911 20.8544 8.24382 20.84 8 20.8114C9.40677 21.7159 11.0444 22.1959 12.7168 22.194C18.3783 22.194 21.4733 17.505 21.4733 13.4382C21.4733 13.3061 21.47 13.1726 21.4641 13.0405C22.0661 12.6051 22.5857 12.066 22.9987 11.4484L23 11.4464V11.4464Z" fill="white"/>
</svg>
