<svg width="63" height="80" viewBox="0 0 63 80" fill="none" xmlns="http://www.w3.org/2000/svg">
<path fill-rule="evenodd" clip-rule="evenodd" d="M39.73 32.2736L28.6118 43.6136L20.4309 35.2709L16.3409 39.4427L28.6109 51.9573L47.3454 32.8518L43.2545 28.68L39.73 32.2736Z" stroke="#62E0D9" stroke-width="3.064"/>
<path fill-rule="evenodd" clip-rule="evenodd" d="M51.7418 8.95453C46.8854 8.95453 42.0573 7.9218 37.6673 5.78725C35.5645 4.77543 33.4136 3.48452 31.5545 1.87634C29.6954 3.48452 27.5445 4.77543 25.4409 5.78725C21.0518 7.9218 16.2245 8.95453 11.3673 8.95453H1.73999V45.8545C1.73999 52.3182 4.3009 58.5318 8.85544 63.03C15.5427 69.6209 31.5554 78.1882 31.5554 78.1882C31.5554 78.1882 47.5664 69.6209 54.2536 63.03C58.8082 58.5318 61.3691 52.3173 61.3691 45.8545V8.95453H51.7418Z" stroke="#62E0D9" stroke-width="3.064"/>
<path fill-rule="evenodd" clip-rule="evenodd" d="M53.5818 22.3018V46.1645C53.5818 50.4754 51.8518 54.6554 48.8373 57.6327C44.6446 61.7663 35.0855 67.4236 31.5555 69.4509C28.0227 67.4209 18.4555 61.7572 14.2673 57.629C11.2546 54.6545 9.52728 50.4754 9.52728 46.1645V17.2063H11.3673C17.4646 17.2063 23.4891 15.8436 28.7918 13.2672C29.7316 12.8153 30.6535 12.3271 31.5555 11.8036C32.4391 12.3172 33.3736 12.8127 34.3409 13.279C39.6264 15.8481 45.6446 17.2063 51.7418 17.2063H53.5818V22.3018Z" stroke="#62E0D9" stroke-width="3.064"/>
</svg>
